<svg xmlns="http://www.w3.org/2000/svg" xmlns:xlink="http://www.w3.org/1999/xlink" width="500" zoomAndPan="magnify" viewBox="0 0 375 374.999991" height="500" preserveAspectRatio="xMidYMid meet" version="1.0"><defs><clipPath id="057f4dc185"><path d="M 26.328125 145 L 348.828125 145 L 348.828125 230 L 26.328125 230 Z M 26.328125 145 " clip-rule="nonzero"/></clipPath></defs><g clip-path="url(#057f4dc185)"><path fill="" d="M 307.574219 154.996094 L 329.050781 190.777344 C 244.644531 171.128906 165.761719 166.214844 31.476562 194.316406 C 28.457031 194.945312 26.386719 197.605469 26.386719 200.570312 C 26.386719 201.003906 26.429688 201.445312 26.523438 201.886719 C 27.246094 205.347656 30.636719 207.5625 34.097656 206.839844 C 164.03125 179.648438 241.0625 183.871094 322.335938 202.367188 L 287.683594 217.523438 C 285.28125 218.574219 283.847656 220.921875 283.847656 223.386719 C 283.847656 224.246094 284.019531 225.113281 284.386719 225.949219 C 285.804688 229.1875 289.578125 230.664062 292.816406 229.246094 L 344.960938 206.4375 C 345.066406 206.390625 345.160156 206.316406 345.265625 206.261719 C 345.492188 206.148438 345.710938 206.027344 345.925781 205.886719 C 346.082031 205.785156 346.226562 205.671875 346.375 205.554688 C 346.566406 205.402344 346.75 205.238281 346.925781 205.0625 C 347.054688 204.929688 347.179688 204.796875 347.296875 204.65625 C 347.457031 204.460938 347.601562 204.261719 347.738281 204.046875 C 347.839844 203.890625 347.941406 203.734375 348.027344 203.570312 C 348.144531 203.355469 348.234375 203.125 348.328125 202.894531 C 348.375 202.765625 348.449219 202.652344 348.492188 202.523438 C 348.511719 202.457031 348.511719 202.390625 348.53125 202.328125 C 348.550781 202.257812 348.585938 202.199219 348.601562 202.128906 C 348.644531 201.957031 348.648438 201.785156 348.679688 201.609375 C 348.710938 201.414062 348.75 201.21875 348.761719 201.023438 C 348.78125 200.765625 348.769531 200.515625 348.753906 200.265625 C 348.746094 200.082031 348.75 199.902344 348.722656 199.71875 C 348.6875 199.453125 348.617188 199.199219 348.550781 198.945312 C 348.507812 198.78125 348.480469 198.613281 348.425781 198.453125 C 348.300781 198.101562 348.136719 197.769531 347.957031 197.449219 C 347.925781 197.394531 347.914062 197.335938 347.882812 197.285156 L 318.550781 148.410156 C 316.734375 145.378906 312.800781 144.398438 309.769531 146.214844 C 306.742188 148.035156 305.753906 151.960938 307.574219 154.996094 " fill-opacity="1" fill-rule="nonzero"/></g></svg>