<svg xmlns="http://www.w3.org/2000/svg" xmlns:xlink="http://www.w3.org/1999/xlink" width="500" zoomAndPan="magnify" viewBox="0 0 375 374.999991" height="500" preserveAspectRatio="xMidYMid meet" version="1.0"><defs><clipPath id="6886b3c09b"><path d="M 26.164062 145 L 348.664062 145 L 348.664062 230 L 26.164062 230 Z M 26.164062 145 " clip-rule="nonzero"/></clipPath></defs><g clip-path="url(#6886b3c09b)"><path fill="" d="M 67.417969 220.003906 L 45.945312 184.222656 C 130.351562 203.871094 209.230469 208.785156 343.515625 180.683594 C 346.535156 180.054688 348.605469 177.394531 348.605469 174.429688 C 348.605469 173.996094 348.5625 173.554688 348.46875 173.113281 C 347.746094 169.652344 344.355469 167.4375 340.894531 168.160156 C 210.960938 195.351562 133.929688 191.128906 52.65625 172.632812 L 87.308594 157.476562 C 89.710938 156.425781 91.144531 154.078125 91.144531 151.613281 C 91.144531 150.753906 90.972656 149.886719 90.605469 149.050781 C 89.191406 145.8125 85.414062 144.335938 82.179688 145.753906 L 30.035156 168.5625 C 29.925781 168.609375 29.832031 168.683594 29.726562 168.738281 C 29.5 168.851562 29.28125 168.972656 29.070312 169.113281 C 28.914062 169.214844 28.765625 169.328125 28.621094 169.445312 C 28.425781 169.597656 28.242188 169.761719 28.070312 169.9375 C 27.9375 170.070312 27.816406 170.203125 27.695312 170.34375 C 27.535156 170.539062 27.394531 170.738281 27.253906 170.953125 C 27.152344 171.109375 27.050781 171.265625 26.964844 171.429688 C 26.851562 171.644531 26.757812 171.875 26.667969 172.105469 C 26.617188 172.234375 26.542969 172.347656 26.5 172.476562 C 26.480469 172.542969 26.480469 172.609375 26.460938 172.671875 C 26.441406 172.742188 26.40625 172.800781 26.390625 172.871094 C 26.347656 173.042969 26.34375 173.214844 26.316406 173.390625 C 26.285156 173.585938 26.246094 173.777344 26.230469 173.976562 C 26.210938 174.234375 26.226562 174.484375 26.238281 174.734375 C 26.246094 174.917969 26.246094 175.097656 26.269531 175.28125 C 26.304688 175.546875 26.375 175.796875 26.441406 176.054688 C 26.484375 176.21875 26.511719 176.386719 26.570312 176.546875 C 26.695312 176.898438 26.855469 177.230469 27.035156 177.550781 C 27.066406 177.605469 27.082031 177.664062 27.113281 177.714844 L 56.441406 226.589844 C 58.261719 229.621094 62.191406 230.601562 65.222656 228.785156 C 68.253906 226.964844 69.238281 223.039062 67.417969 220.003906 " fill-opacity="1" fill-rule="nonzero"/></g></svg>